<?xml version="1.0" encoding="UTF-8" standalone="no"?>
<svg
   xmlns:dc="http://purl.org/dc/elements/1.1/"
   xmlns:cc="http://creativecommons.org/ns#"
   xmlns:rdf="http://www.w3.org/1999/02/22-rdf-syntax-ns#"
   xmlns:svg="http://www.w3.org/2000/svg"
   xmlns="http://www.w3.org/2000/svg"
   xmlns:sodipodi="http://sodipodi.sourceforge.net/DTD/sodipodi-0.dtd"
   xmlns:inkscape="http://www.inkscape.org/namespaces/inkscape"
   version="1.1"
   id="svg8"
   inkscape:version="1.0.2-2 (e86c870879, 2021-01-15)"
   sodipodi:docname="Alamos_black.svg"
   x="0px"
   y="0px"
   width="772.27209"
   height="160.63747"
   viewBox="0 0 772.27209 160.63747"
   enable-background="new 0 0 725.109 160.637"
   xml:space="preserve"
   inkscape:export-filename="C:\Users\SimonScherer\Alamos GmbH\OneDrive - Alamos GmbH\3_Marketing, Vertrieb\Bilder und Icons\Logo\Alamos\Logo300DPI.png"
   inkscape:export-xdpi="254.58569"
   inkscape:export-ydpi="254.58569"><metadata
   id="metadata40"><rdf:RDF><cc:Work
       rdf:about=""><dc:format>image/svg+xml</dc:format><dc:type
         rdf:resource="http://purl.org/dc/dcmitype/StillImage" /><dc:title></dc:title></cc:Work></rdf:RDF></metadata><defs
   id="defs38" />
<sodipodi:namedview
   pagecolor="#ffffff"
   bordercolor="#666666"
   borderopacity="1.0"
   inkscape:cx="732.35045"
   fit-margin-top="0"
   inkscape:zoom="15.839192"
   inkscape:cy="39.333004"
   fit-margin-left="0"
   id="base"
   showgrid="false"
   inkscape:window-width="2560"
   inkscape:window-height="1361"
   inkscape:pageopacity="0.0"
   inkscape:document-units="mm"
   inkscape:pageshadow="2"
   inkscape:window-x="-9"
   inkscape:current-layer="layer1"
   inkscape:window-y="-9"
   inkscape:window-maximized="1"
   fit-margin-right="0"
   fit-margin-bottom="0"
   inkscape:document-rotation="0">
	</sodipodi:namedview>
<g
   id="layer1"
   transform="translate(1.6573534,-95.552177)"
   inkscape:label="Layer 1"
   inkscape:groupmode="layer">
	<g
   id="g3997"
   transform="matrix(0.33072917,0,0,-0.33072917,-12.174541,194.2411)"
   inkscape:label="Logo"
   style="fill:#000000;fill-opacity:1">
		<g
   id="g3999"
   style="fill:#000000;fill-opacity:1">
			<path
   id="path4001"
   inkscape:connector-curvature="0"
   fill="#1a1a1a"
   d="m 514.609,298.398 v -468.279 h 97.586 V 298.398 Z M 193.021,273.031 31.8,-169.881 h 108.136 l 31.181,98.504 h 0.145 l -0.065,0.142 5.59,20.055 h 74.844 c 0.189,0 0.363,0 0.564,0 13.187,0 23.885,14.194 23.885,31.677 0,17.486 -10.698,31.683 -23.885,31.683 -0.201,0 -0.375,0 -0.564,0 h -56.982 l 45.998,143.213 c 4.119,12.768 6.688,25.656 7.716,38.622 h 2.415 c 1.441,-15.446 3.942,-28.778 7.441,-39.895 L 300.095,23.081 h 0.08 l 1.837,-6.089 3.753,-11.758 h -0.21 l 23.176,-76.677 v -0.083 l 31.391,-98.356 H 468.9 L 311.367,273.031 Z M 1763.129,161.626 c -46.739,-1.186 -88.905,-20.816 -119.554,-51.797 -0.177,-0.176 -0.387,-0.32 -0.564,-0.499 -11.229,-10.707 -20.35,-22.944 -27.493,-36.641 -14.238,-25.268 -22.388,-54.453 -22.388,-85.525 0,-35.002 10.385,-67.577 28.122,-94.896 0.334,-0.52 0.664,-1.039 0.998,-1.559 0.52,-0.785 1.028,-1.565 1.562,-2.339 1.084,-1.603 2.167,-3.189 3.334,-4.748 0.331,-0.443 0.65,-0.898 0.983,-1.34 0.842,-1.107 1.683,-2.191 2.56,-3.266 31.955,-40.406 81.393,-66.325 136.902,-66.325 96.378,0 174.555,78.095 174.555,174.472 0,21.647 -3.989,42.378 -11.209,61.512 -7.264,23.582 -19.497,43.989 -36.85,61.153 -8.525,8.446 -18.027,15.656 -28.411,21.679 -27.948,19.023 -61.719,30.118 -98.085,30.118 -1.507,0.001 -2.965,0.047 -4.462,0.001 z M 822.876,154.12 c -19.355,0 -40.834,-2.656 -64.423,-8.005 -23.572,-5.361 -42.174,-11.572 -55.76,-18.57 v -73.49 c 33.971,22.445 69.812,33.661 107.492,33.661 37.482,0 56.209,-17.275 56.209,-51.878 L 780.566,24.434 C 707.875,14.967 671.512,-20.501 671.512,-81.865 c 0,-29.031 8.826,-52.261 26.43,-69.656 17.608,-17.409 41.743,-26.079 72.428,-26.079 41.587,0 72.972,17.725 94.172,53.15 h 1.273 v -45.431 h 92.35 V 19.184 c 0.001,89.993 -45.088,134.936 -135.289,134.936 z m 414.216,0 c -21.626,0 -41.593,-5.269 -59.817,-15.88 -18.213,-10.596 -32.356,-24.347 -42.443,-41.232 h -1.205 v 49.382 h -97.654 v -316.271 h 97.654 V 5.867 c 0,22.653 4.961,40.612 14.947,53.792 9.989,13.175 23.365,19.698 40.039,19.698 33.165,0 49.683,-22.277 49.683,-66.97 v -182.268 h 97.654 V 7.137 c 0,20.598 5.005,37.727 15.092,51.524 10.087,13.797 23.197,20.696 39.263,20.696 33.774,0 50.669,-22.967 50.669,-68.883 V -169.88 h 97.296 V 26.85 c 0,84.839 -34.402,127.271 -103.175,127.271 -46.751,0 -82.214,-19.633 -106.299,-58.964 -16.476,39.331 -47.014,58.963 -91.704,58.963 z m 882.78,0 c -17.917,0 -35.156,-1.86 -51.732,-5.669 -16.577,-3.81 -31.279,-9.8 -44.144,-17.926 -12.88,-8.139 -23.179,-18.627 -30.906,-31.391 -7.716,-12.768 -11.613,-28.004 -11.613,-45.71 0,-12.98 1.701,-24.195 5.091,-33.661 3.402,-9.478 8.404,-17.817 14.882,-25.028 6.49,-7.208 14.527,-13.53 24.094,-18.986 9.579,-5.463 20.607,-10.565 33.177,-15.301 7.813,-3.092 15.933,-5.829 24.369,-8.297 8.448,-2.469 16.287,-5.268 23.386,-8.356 7.107,-3.092 12.9,-6.724 17.442,-10.843 4.527,-4.122 6.797,-9.278 6.797,-15.461 0,-9.676 -5.037,-16.872 -15.027,-21.614 -9.989,-4.727 -23.586,-7.087 -40.893,-7.087 -14.206,0 -29.321,2.359 -45.278,7.087 -15.954,4.742 -31.987,11.938 -48.041,21.614 v -79.016 c 29.652,-10.707 61.928,-16.075 96.732,-16.075 18.942,0 37.169,1.925 54.774,5.734 17.607,3.809 33.21,9.877 46.695,18.219 13.497,8.336 24.26,19.098 32.389,32.386 8.138,13.276 12.192,29.3 12.192,48.047 0,13.382 -2.005,24.901 -6.024,34.577 -4.022,9.679 -9.777,18.159 -17.297,25.37 -7.506,7.208 -16.5,13.497 -26.994,18.856 -10.497,5.347 -22.246,10.276 -35.224,14.805 -7.21,2.469 -14.442,4.86 -21.759,7.228 -7.308,2.371 -13.943,5.096 -19.907,8.085 -5.968,2.976 -10.819,6.508 -14.528,10.63 -3.712,4.119 -5.604,9.035 -5.604,14.804 0,4.332 1.284,8.229 3.765,11.628 2.471,3.399 5.802,6.122 10.131,8.294 4.32,2.157 9.357,3.818 15.026,4.961 5.661,1.128 11.684,1.692 18.071,1.692 13.589,0 27.416,-1.783 41.525,-5.38 14.105,-3.611 27.328,-9.025 39.685,-16.234 v 75.407 c -14.008,4.118 -28.181,7.262 -42.588,9.422 -14.415,2.16 -28.668,3.189 -42.664,3.189 z M 1859.587,93.241 c 3.375,-0.031 6.75,-1.383 9.343,-3.963 27.106,-27.074 42.035,-63.093 42.035,-101.405 0,-38.291 -14.894,-74.256 -41.959,-101.339 -2.622,-2.622 -6.056,-3.974 -9.499,-3.974 -3.434,0 -6.865,1.352 -9.487,3.974 -5.25,5.25 -5.25,13.742 0,18.992 21.986,22.01 34.081,51.23 34.081,82.347 0,31.125 -12.124,60.425 -34.161,82.416 -5.247,5.247 -5.247,13.739 0,18.989 2.291,2.293 5.226,3.608 8.229,3.898 0.476,0.045 0.927,0.076 1.418,0.065 z m -183.768,-0.065 c 3.443,0 6.877,-1.341 9.502,-3.963 5.247,-5.25 5.247,-13.754 0,-19.004 -22.016,-21.97 -34.16,-51.232 -34.16,-82.336 0,-31.116 12.133,-60.337 34.16,-82.347 5.247,-5.25 5.247,-13.742 0,-18.992 -2.625,-2.622 -6.047,-3.974 -9.502,-3.974 -3.422,0 -6.865,1.352 -9.49,3.974 -27.106,27.083 -42.018,63.047 -42.018,101.339 0,38.277 14.935,74.288 42.018,101.34 2.628,2.622 6.059,3.963 9.49,3.963 z m 41.102,-41.169 c 3.443,0 6.877,-1.276 9.502,-3.898 5.247,-5.25 5.247,-13.819 0,-19.069 -10.984,-11.029 -17.008,-25.621 -17.008,-41.167 0,-15.582 6.056,-30.174 17.073,-41.179 5.25,-5.229 5.25,-13.742 0,-18.992 -2.622,-2.622 -6.044,-3.963 -9.49,-3.963 -3.443,0 -6.874,1.341 -9.499,3.963 -16.099,16.069 -24.948,37.417 -24.948,60.171 0,22.721 8.814,44.138 24.88,60.236 2.628,2.622 6.059,3.898 9.49,3.898 z m 101.339,0 c 3.443,0 6.865,-1.276 9.502,-3.898 16.098,-16.087 24.945,-37.494 24.945,-60.236 0,-22.754 -8.814,-44.102 -24.88,-60.171 -2.622,-2.622 -6.044,-3.963 -9.49,-3.963 -3.443,0 -6.874,1.341 -9.499,3.963 -5.247,5.25 -5.247,13.742 0,18.992 10.993,10.996 17.008,25.598 17.008,41.179 0,15.546 -6.068,30.162 -17.076,41.167 -5.247,5.25 -5.247,13.819 0,19.069 2.616,2.61 6.059,3.886 9.49,3.898 z m -50.593,-37.282 c 14.849,0 26.852,-12.015 26.852,-26.852 0,-14.861 -12.003,-26.864 -26.852,-26.864 -14.838,0 -26.929,12.003 -26.929,26.864 0,14.837 12.092,26.852 26.929,26.852 z M 866.394,-20.064 v -21.343 c 0,-19.352 -5.77,-35.374 -17.297,-48.041 -11.525,-12.67 -26.463,-18.992 -44.79,-18.992 -13.175,0 -23.595,3.602 -31.326,10.695 -7.716,7.11 -11.613,16.169 -11.613,27.283 0,24.508 15.912,38.835 47.625,42.957 z"
   style="fill:#000000;fill-opacity:1" />
		</g>
	</g>
<g
   id="g68"
   transform="matrix(0.1975184,0,0,0.1975184,731.40734,109.89299)"
   style="stroke:#000000;stroke-opacity:1"><circle
     cx="100"
     cy="100"
     r="88.5"
     fill="none"
     stroke="#000000"
     stroke-width="20"
     id="circle54"
     style="stroke:#000000;stroke-opacity:1" /><path
     d="m 94.6,92 c 5.5,0 9.5,-1.1 11.9,-3.2 2.4,-2 3.7,-5.4 3.7,-10.2 0,-4.7 -1.3,-8 -3.7,-10.1 -2.4,-2 -6.4,-3 -11.9,-3 H 83.4 V 92 h 11.2 m -11.2,18.3 v 39 H 56.8 V 46.2 h 40.6 c 13.6,0 23.5,2.3 29.8,6.9 6.4,4.5 9.5,11.7 9.5,21.6 0,6.8 -1.6,12.4 -4.9,16.8 -3.3,4.3 -8.2,7.6 -14.9,9.6 3.7,0.9 6.9,2.8 9.8,5.7 2.9,2.9 5.8,7.3 8.7,13.3 l 14.5,29.2 H 121.6 L 109,123.7 c -2.5,-5.1 -5.1,-8.7 -7.7,-10.5 -2.6,-1.9 -6.1,-2.9 -10.4,-2.9 h -7.5"
     id="path56"
     style="stroke:#000000;stroke-opacity:1;fill:#000000;fill-opacity:1" /></g></g>
</svg>
